<svg width="116" height="116" viewBox="0 0 116 116" fill="none" xmlns="http://www.w3.org/2000/svg">
<path d="M38.6667 106.333H77.3334" stroke="#4B662C" stroke-width="10" stroke-linecap="round" stroke-linejoin="round"/>
<path d="M24.1667 91.8333H91.8333" stroke="#4B662C" stroke-width="10" stroke-linecap="round" stroke-linejoin="round"/>
<path d="M9.66669 77.3333H106.333" stroke="#4B662C" stroke-width="10" stroke-linecap="round" stroke-linejoin="round"/>
<path d="M58 29V58M58 58L67.6666 48.3333M58 58L48.3333 48.3333" stroke="#4B662C" stroke-width="10" stroke-linecap="round" stroke-linejoin="round"/>
<path d="M58 9.66666V14.5" stroke="#4B662C" stroke-width="10" stroke-linecap="round"/>
<path d="M106.333 58H101.5" stroke="#4B662C" stroke-width="10" stroke-linecap="round"/>
<path d="M14.5 58H9.66669" stroke="#4B662C" stroke-width="10" stroke-linecap="round"/>
<path d="M92.1755 23.8268L90.277 25.7255" stroke="#4B662C" stroke-width="10" stroke-linecap="round"/>
<path d="M25.722 25.7243L23.8232 23.8256" stroke="#4B662C" stroke-width="10" stroke-linecap="round"/>
<path d="M48.3333 30.6501C51.3571 29.5815 54.6104 29 58 29C74.0162 29 87 41.9837 87 58C87 65.3549 84.2619 72.0698 79.75 77.1821H36.25C31.7378 72.0698 29 65.3549 29 58C29 54.6104 29.5815 51.3571 30.6501 48.3333" stroke="#4B662C" stroke-width="10" stroke-linecap="round"/>
</svg>
